<svg width="22" height="16" viewBox="0 0 22 16" fill="none" xmlns="http://www.w3.org/2000/svg">
<path d="M14 16.0001C11.7667 16.0001 9.875 15.2251 8.325 13.6751C6.775 12.1251 6 10.2335 6 8.00012C6 5.78346 6.775 3.89596 8.325 2.33762C9.875 0.779289 11.7667 0.00012207 14 0.00012207C16.2167 0.00012207 18.1042 0.779289 19.6625 2.33762C21.2208 3.89596 22 5.78346 22 8.00012C22 10.2335 21.2208 12.1251 19.6625 13.6751C18.1042 15.2251 16.2167 16.0001 14 16.0001ZM14 14.0001C15.6667 14.0001 17.0833 13.4168 18.25 12.2501C19.4167 11.0835 20 9.66679 20 8.00012C20 6.33346 19.4167 4.91679 18.25 3.75012C17.0833 2.58346 15.6667 2.00012 14 2.00012C12.3333 2.00012 10.9167 2.58346 9.75 3.75012C8.58333 4.91679 8 6.33346 8 8.00012C8 9.66679 8.58333 11.0835 9.75 12.2501C10.9167 13.4168 12.3333 14.0001 14 14.0001ZM15 7.60012V5.00012C15 4.71679 14.9042 4.47929 14.7125 4.28762C14.5208 4.09596 14.2833 4.00012 14 4.00012C13.7167 4.00012 13.4792 4.09596 13.2875 4.28762C13.0958 4.47929 13 4.71679 13 5.00012V8.02512C13 8.15846 13.0292 8.28762 13.0875 8.41262C13.1458 8.53762 13.2167 8.64179 13.3 8.72512L15.575 11.0001C15.775 11.2001 16.0125 11.3001 16.2875 11.3001C16.5625 11.3001 16.8 11.2001 17 11.0001C17.2 10.8001 17.3 10.5626 17.3 10.2876C17.3 10.0126 17.2 9.77512 17 9.57512L15 7.60012ZM2 5.00012C1.71667 5.00012 1.47917 4.90429 1.2875 4.71262C1.09583 4.52096 1 4.28346 1 4.00012C1 3.71679 1.09583 3.47929 1.2875 3.28762C1.47917 3.09596 1.71667 3.00012 2 3.00012H4C4.28333 3.00012 4.52083 3.09596 4.7125 3.28762C4.90417 3.47929 5 3.71679 5 4.00012C5 4.28346 4.90417 4.52096 4.7125 4.71262C4.52083 4.90429 4.28333 5.00012 4 5.00012H2ZM1 9.00012C0.716667 9.00012 0.479167 8.90429 0.2875 8.71262C0.0958333 8.52096 0 8.28346 0 8.00012C0 7.71679 0.0958333 7.47929 0.2875 7.28762C0.479167 7.09596 0.716667 7.00012 1 7.00012H4C4.28333 7.00012 4.52083 7.09596 4.7125 7.28762C4.90417 7.47929 5 7.71679 5 8.00012C5 8.28346 4.90417 8.52096 4.7125 8.71262C4.52083 8.90429 4.28333 9.00012 4 9.00012H1ZM2 13.0001C1.71667 13.0001 1.47917 12.9043 1.2875 12.7126C1.09583 12.521 1 12.2835 1 12.0001C1 11.7168 1.09583 11.4793 1.2875 11.2876C1.47917 11.096 1.71667 11.0001 2 11.0001H4C4.28333 11.0001 4.52083 11.096 4.7125 11.2876C4.90417 11.4793 5 11.7168 5 12.0001C5 12.2835 4.90417 12.521 4.7125 12.7126C4.52083 12.9043 4.28333 13.0001 4 13.0001H2Z" fill="#090F1F"/>
</svg>
