<svg width="12" height="12" viewBox="0 0 12 12" fill="none" xmlns="http://www.w3.org/2000/svg">
<rect width="12" height="12" rx="6" fill="#0062E2"/>
<path d="M4.644 7.3875L8.8815 3.15C8.9815 3.05 9.09817 3 9.2315 3C9.36483 3 9.4815 3.05 9.5815 3.15C9.6815 3.25 9.7315 3.36875 9.7315 3.50625C9.7315 3.64375 9.6815 3.7625 9.5815 3.8625L4.994 8.4625C4.894 8.5625 4.77733 8.6125 4.644 8.6125C4.51067 8.6125 4.394 8.5625 4.294 8.4625L2.144 6.3125C2.044 6.2125 1.99608 6.09375 2.00025 5.95625C2.00442 5.81875 2.0565 5.7 2.1565 5.6C2.2565 5.5 2.37525 5.45 2.51275 5.45C2.65025 5.45 2.769 5.5 2.869 5.6L4.644 7.3875Z" fill="white"/>
</svg>
