<svg width="14" height="12" viewBox="0 0 14 12" fill="none" xmlns="http://www.w3.org/2000/svg">
<path d="M6.99998 2.66667V1.33333C6.99998 0.6 6.39998 0 5.66665 0H1.66665C0.933313 0 0.333313 0.6 0.333313 1.33333V10.6667C0.333313 11.4 0.933313 12 1.66665 12H12.3333C13.0666 12 13.6666 11.4 13.6666 10.6667V4C13.6666 3.26667 13.0666 2.66667 12.3333 2.66667H6.99998ZM5.66665 10.6667H1.66665V9.33333H5.66665V10.6667ZM5.66665 8H1.66665V6.66667H5.66665V8ZM5.66665 5.33333H1.66665V4H5.66665V5.33333ZM5.66665 2.66667H1.66665V1.33333H5.66665V2.66667ZM12.3333 10.6667H6.99998V4H12.3333V10.6667ZM11 5.33333H8.33331V6.66667H11V5.33333ZM11 8H8.33331V9.33333H11V8Z" fill="#0062E2"/>
</svg>
