<svg width="20" height="20" viewBox="0 0 20 20" fill="none" xmlns="http://www.w3.org/2000/svg">
<path d="M10 20.0001C8.61667 20.0001 7.31667 19.7376 6.1 19.2126C4.88333 18.6876 3.825 17.9751 2.925 17.0751C2.025 16.1751 1.3125 15.1168 0.7875 13.9001C0.2625 12.6835 0 11.3835 0 10.0001C0 8.61679 0.2625 7.31679 0.7875 6.10012C1.3125 4.88346 2.025 3.82512 2.925 2.92512C3.825 2.02512 4.88333 1.31262 6.1 0.787622C7.31667 0.262622 8.61667 0.00012207 10 0.00012207C11.3833 0.00012207 12.6833 0.262622 13.9 0.787622C15.1167 1.31262 16.175 2.02512 17.075 2.92512C17.975 3.82512 18.6875 4.88346 19.2125 6.10012C19.7375 7.31679 20 8.61679 20 10.0001C20 11.3835 19.7375 12.6835 19.2125 13.9001C18.6875 15.1168 17.975 16.1751 17.075 17.0751C16.175 17.9751 15.1167 18.6876 13.9 19.2126C12.6833 19.7376 11.3833 20.0001 10 20.0001ZM10 18.0001C12.2333 18.0001 14.125 17.2251 15.675 15.6751C17.225 14.1251 18 12.2335 18 10.0001C18 9.88346 17.9958 9.76262 17.9875 9.63762C17.9792 9.51262 17.975 9.40845 17.975 9.32512C17.8917 9.80846 17.6667 10.2085 17.3 10.5251C16.9333 10.8418 16.5 11.0001 16 11.0001H14C13.45 11.0001 12.9792 10.8043 12.5875 10.4126C12.1958 10.021 12 9.55012 12 9.00012V8.00012H8V6.00012C8 5.45012 8.19583 4.97929 8.5875 4.58762C8.97917 4.19596 9.45 4.00012 10 4.00012H11C11 3.61679 11.1042 3.27929 11.3125 2.98762C11.5208 2.69596 11.775 2.45846 12.075 2.27512C11.7417 2.19179 11.4042 2.12512 11.0625 2.07512C10.7208 2.02512 10.3667 2.00012 10 2.00012C7.76667 2.00012 5.875 2.77512 4.325 4.32512C2.775 5.87512 2 7.76679 2 10.0001H7C8.1 10.0001 9.04167 10.3918 9.825 11.1751C10.6083 11.9585 11 12.9001 11 14.0001V15.0001H8V17.7501C8.33333 17.8335 8.6625 17.896 8.9875 17.9376C9.3125 17.9793 9.65 18.0001 10 18.0001Z" fill="#1C1B1F"/>
</svg>
