<svg width="12" height="20" viewBox="0 0 12 20" fill="none" xmlns="http://www.w3.org/2000/svg">
<path d="M10 2.00012V9.00012L11.7 10.7001C11.8 10.8001 11.875 10.9126 11.925 11.0376C11.975 11.1626 12 11.2918 12 11.4251V12.0001C12 12.2835 11.9042 12.521 11.7125 12.7126C11.5208 12.9043 11.2833 13.0001 11 13.0001H7V18.8501C7 19.1335 6.90417 19.371 6.7125 19.5626C6.52083 19.7543 6.28333 19.8501 6 19.8501C5.71667 19.8501 5.47917 19.7543 5.2875 19.5626C5.09583 19.371 5 19.1335 5 18.8501V13.0001H1C0.716667 13.0001 0.479167 12.9043 0.2875 12.7126C0.0958333 12.521 0 12.2835 0 12.0001V11.4251C0 11.2918 0.025 11.1626 0.075 11.0376C0.125 10.9126 0.2 10.8001 0.3 10.7001L2 9.00012V2.00012C1.71667 2.00012 1.47917 1.90429 1.2875 1.71262C1.09583 1.52096 1 1.28346 1 1.00012C1 0.716789 1.09583 0.479289 1.2875 0.287622C1.47917 0.0959554 1.71667 0.00012207 2 0.00012207H10C10.2833 0.00012207 10.5208 0.0959554 10.7125 0.287622C10.9042 0.479289 11 0.716789 11 1.00012C11 1.28346 10.9042 1.52096 10.7125 1.71262C10.5208 1.90429 10.2833 2.00012 10 2.00012ZM2.85 11.0001H9.15L8 9.85012V2.00012H4V9.85012L2.85 11.0001Z" fill="#090F1F"/>
</svg>
