<svg width="21" height="21" viewBox="0 0 21 21" fill="none" xmlns="http://www.w3.org/2000/svg">
<path d="M18 14C18 13.4667 17.8417 12.9333 17.525 12.4C17.2083 11.8667 16.75 11.4833 16.15 11.25L8.35 8.14999L8 8.04999C7.88333 8.01666 7.75 7.99999 7.6 7.99999H6V6.52499C6 6.19166 6.075 5.88333 6.225 5.59999C6.375 5.31666 6.58333 5.08333 6.85 4.89999L11.85 1.32499C12.0333 1.19166 12.221 1.09566 12.413 1.03699C12.605 0.978326 12.8007 0.949326 13 0.949993C13.1993 0.95066 13.3993 0.979993 13.6 1.03799C13.8007 1.09599 13.984 1.19166 14.15 1.32499L19.15 4.89999C19.4167 5.08333 19.625 5.31666 19.775 5.59999C19.925 5.88333 20 6.19166 20 6.52499V14H18ZM14 6.99999C14.1333 6.99999 14.25 6.94999 14.35 6.84999C14.45 6.74999 14.5 6.63333 14.5 6.49999C14.5 6.36666 14.45 6.24999 14.35 6.14999C14.25 6.04999 14.1333 5.99999 14 5.99999C13.8667 5.99999 13.75 6.04999 13.65 6.14999C13.55 6.24999 13.5 6.36666 13.5 6.49999C13.5 6.63333 13.55 6.74999 13.65 6.84999C13.75 6.94999 13.8667 6.99999 14 6.99999ZM12 6.99999C12.1333 6.99999 12.25 6.94999 12.35 6.84999C12.45 6.74999 12.5 6.63333 12.5 6.49999C12.5 6.36666 12.45 6.24999 12.35 6.14999C12.25 6.04999 12.1333 5.99999 12 5.99999C11.8667 5.99999 11.75 6.04999 11.65 6.14999C11.55 6.24999 11.5 6.36666 11.5 6.49999C11.5 6.63333 11.55 6.74999 11.65 6.84999C11.75 6.94999 11.8667 6.99999 12 6.99999ZM14 8.99999C14.1333 8.99999 14.25 8.94999 14.35 8.84999C14.45 8.74999 14.5 8.63333 14.5 8.49999C14.5 8.36666 14.45 8.24999 14.35 8.14999C14.25 8.04999 14.1333 7.99999 14 7.99999C13.8667 7.99999 13.75 8.04999 13.65 8.14999C13.55 8.24999 13.5 8.36666 13.5 8.49999C13.5 8.63333 13.55 8.74999 13.65 8.84999C13.75 8.94999 13.8667 8.99999 14 8.99999ZM12 8.99999C12.1333 8.99999 12.25 8.94999 12.35 8.84999C12.45 8.74999 12.5 8.63333 12.5 8.49999C12.5 8.36666 12.45 8.24999 12.35 8.14999C12.25 8.04999 12.1333 7.99999 12 7.99999C11.8667 7.99999 11.75 8.04999 11.65 8.14999C11.55 8.24999 11.5 8.36666 11.5 8.49999C11.5 8.63333 11.55 8.74999 11.65 8.84999C11.75 8.94999 11.8667 8.99999 12 8.99999ZM12.375 20.825C12.5583 20.875 12.771 20.896 13.013 20.888C13.255 20.88 13.459 20.8423 13.625 20.775L21 18C21 17.4333 20.8 16.9583 20.4 16.575C20 16.1917 19.5333 16 19 16H12.15C12.1 16 12.0417 15.996 11.975 15.988C11.9083 15.98 11.8583 15.9673 11.825 15.95L10.35 15.425C10.2167 15.375 10.125 15.2917 10.075 15.175C10.025 15.0583 10.0167 14.9333 10.05 14.8C10.0833 14.6833 10.1667 14.5917 10.3 14.525C10.4333 14.4583 10.5667 14.45 10.7 14.5L11.825 14.925C11.8917 14.9583 11.946 14.9793 11.988 14.988C12.03 14.9967 12.0923 15.0007 12.175 15H14.8C15.1167 15 15.3957 14.8917 15.637 14.675C15.8783 14.4583 15.9993 14.175 16 13.825C16 13.5917 15.929 13.3667 15.787 13.15C15.645 12.9333 15.4577 12.7833 15.225 12.7L8.3 10.125C8.18333 10.0917 8.06667 10.0623 7.95 10.037C7.83333 10.0117 7.71667 9.99933 7.6 9.99999H6V19.025L12.375 20.825ZM0 19C0 19.55 0.196 20.021 0.588 20.413C0.98 20.805 1.45067 21.0007 2 21C2.54933 20.9993 3.02033 20.8037 3.413 20.413C3.80567 20.0223 4.00133 19.5513 4 19V12C4 11.45 3.80433 10.9793 3.413 10.588C3.02167 10.1967 2.55067 10.0007 2 9.99999C1.44933 9.99933 0.978667 10.1953 0.588 10.588C0.197333 10.9807 0.00133333 11.4513 0 12V19Z" fill="#F95B1C"/>
</svg>
