<svg width="16" height="20" viewBox="0 0 16 20" fill="none" xmlns="http://www.w3.org/2000/svg">
<path d="M3.975 16.2501C3.80833 15.7668 3.65417 15.2751 3.5125 14.7751C3.37083 14.2751 3.25833 13.7751 3.175 13.2751L2 14.0751V17.0501L3.975 16.2501ZM7.65 2.87513C6.85 3.72513 6.20833 4.84597 5.725 6.23763C5.24167 7.6293 5 9.0918 5 10.6251C5 11.6251 5.09167 12.6043 5.275 13.5626C5.45833 14.521 5.7 15.3335 6 16.0001H10C10.3 15.3335 10.5417 14.521 10.725 13.5626C10.9083 12.6043 11 11.6251 11 10.6251C11 9.0918 10.7583 7.6293 10.275 6.23763C9.79167 4.84597 9.15 3.72513 8.35 2.87513C8.3 2.82513 8.24583 2.78763 8.1875 2.76263C8.12917 2.73763 8.06667 2.72513 8 2.72513C7.93333 2.72513 7.87083 2.73763 7.8125 2.76263C7.75417 2.78763 7.7 2.82513 7.65 2.87513ZM8 11.0001C7.45 11.0001 6.97917 10.8043 6.5875 10.4126C6.19583 10.021 6 9.55013 6 9.00013C6 8.45013 6.19583 7.9793 6.5875 7.58763C6.97917 7.19597 7.45 7.00013 8 7.00013C8.55 7.00013 9.02083 7.19597 9.4125 7.58763C9.80417 7.9793 10 8.45013 10 9.00013C10 9.55013 9.80417 10.021 9.4125 10.4126C9.02083 10.8043 8.55 11.0001 8 11.0001ZM12.025 16.2501L14 17.0501V14.0751L12.825 13.2751C12.7417 13.7751 12.6292 14.2751 12.4875 14.7751C12.3458 15.2751 12.1917 15.7668 12.025 16.2501ZM8.775 0.600134C10.175 1.80013 11.2292 3.27513 11.9375 5.02513C12.6458 6.77513 13 8.7668 13 11.0001L15.1 12.4001C15.3833 12.5835 15.6042 12.8251 15.7625 13.1251C15.9208 13.4251 16 13.7418 16 14.0751V18.5251C16 18.8751 15.8542 19.1501 15.5625 19.3501C15.2708 19.5501 14.9583 19.5835 14.625 19.4501L11.025 18.0001H4.975L1.375 19.4501C1.04167 19.5835 0.729167 19.5501 0.4375 19.3501C0.145833 19.1501 0 18.8751 0 18.5251V14.0751C0 13.7418 0.0791667 13.4251 0.2375 13.1251C0.395833 12.8251 0.616667 12.5835 0.9 12.4001L3 11.0001C3 8.7668 3.35417 6.77513 4.0625 5.02513C4.77083 3.27513 5.825 1.80013 7.225 0.600134C7.34167 0.516801 7.46667 0.450134 7.6 0.400134C7.73333 0.350134 7.86667 0.325134 8 0.325134C8.13333 0.325134 8.26667 0.350134 8.4 0.400134C8.53333 0.450134 8.65833 0.516801 8.775 0.600134Z" fill="#090F1F"/>
</svg>
