<svg width="16" height="21" viewBox="0 0 16 21" fill="none" xmlns="http://www.w3.org/2000/svg">
<path d="M8 9.92512L6.3 11.2251C6.2 11.3085 6.1 11.3126 6 11.2376C5.9 11.1626 5.86667 11.0668 5.9 10.9501L6.55 8.85012L4.8 7.45012C4.71667 7.36679 4.69167 7.27096 4.725 7.16262C4.75833 7.05429 4.83333 7.00012 4.95 7.00012H7.1L7.75 4.95012C7.78333 4.83346 7.86667 4.77512 8 4.77512C8.13333 4.77512 8.21667 4.83346 8.25 4.95012L8.9 7.00012H11.025C11.1417 7.00012 11.2208 7.05429 11.2625 7.16262C11.3042 7.27096 11.2833 7.36679 11.2 7.45012L9.425 8.85012L10.075 10.9501C10.1083 11.0668 10.075 11.1626 9.975 11.2376C9.875 11.3126 9.775 11.3085 9.675 11.2251L8 9.92512ZM8 19.0001L3.325 20.5501C2.99167 20.6668 2.6875 20.6251 2.4125 20.4251C2.1375 20.2251 2 19.9585 2 19.6251V13.2751C1.36667 12.5751 0.875 11.7751 0.525 10.8751C0.175 9.97512 0 9.01679 0 8.00012C0 5.76679 0.775 3.87512 2.325 2.32512C3.875 0.775122 5.76667 0.00012207 8 0.00012207C10.2333 0.00012207 12.125 0.775122 13.675 2.32512C15.225 3.87512 16 5.76679 16 8.00012C16 9.01679 15.825 9.97512 15.475 10.8751C15.125 11.7751 14.6333 12.5751 14 13.2751V19.6251C14 19.9585 13.8625 20.2251 13.5875 20.4251C13.3125 20.6251 13.0083 20.6668 12.675 20.5501L8 19.0001ZM8 14.0001C9.66667 14.0001 11.0833 13.4168 12.25 12.2501C13.4167 11.0835 14 9.66679 14 8.00012C14 6.33346 13.4167 4.91679 12.25 3.75012C11.0833 2.58346 9.66667 2.00012 8 2.00012C6.33333 2.00012 4.91667 2.58346 3.75 3.75012C2.58333 4.91679 2 6.33346 2 8.00012C2 9.66679 2.58333 11.0835 3.75 12.2501C4.91667 13.4168 6.33333 14.0001 8 14.0001ZM4 18.0251L8 17.0001L12 18.0251V14.9251C11.4167 15.2585 10.7875 15.521 10.1125 15.7126C9.4375 15.9043 8.73333 16.0001 8 16.0001C7.26667 16.0001 6.5625 15.9043 5.8875 15.7126C5.2125 15.521 4.58333 15.2585 4 14.9251V18.0251Z" fill="#1C1B1F"/>
</svg>
